<?xml version="1.0" encoding="UTF-8"?>
<svg xmlns="http://www.w3.org/2000/svg" xmlns:xlink="http://www.w3.org/1999/xlink" viewBox="0 0 24 24" width="24px" height="24px">
<g id="surface68690445">
<path style=" stroke:none;fill-rule:nonzero;fill:rgb(94.901961%,49.803922%,4.705882%);fill-opacity:1;" d="M 11 3 L 11 8.15625 C 10.652344 8.015625 9.902344 8 9.535156 8 C 6.757812 8 4.1875 9.304688 4.1875 13 C 4.1875 17.421875 7.671875 18 10 18 C 10.921875 18 13 17.910156 14 17.617188 L 14 3 Z M 16 3 L 16 6 L 19 6 L 19 3 Z M 16 8 L 16 16.699219 C 16 18.21875 15.078125 19.796875 13 20.703125 L 15.859375 21.996094 C 18.765625 20.996094 19 17.703125 19 16.699219 L 19 8 Z M 9.972656 10.550781 C 10.289062 10.550781 10.648438 10.609375 11 10.691406 L 11 15.394531 C 10.648438 15.472656 10.289062 15.535156 9.972656 15.535156 C 8.660156 15.535156 7.390625 15.121094 7.390625 13 C 7.390625 10.878906 8.660156 10.550781 9.972656 10.550781 Z M 9.972656 10.550781 "/>
</g>
</svg>
